HIERARCHY
ROOT hip
{
  OFFSET 0 0 0
  CHANNELS 6 Xposition Yposition Zposition Zrotation Yrotation Xrotation
  JOINT abdomen
  {
    OFFSET 0 20.6881 -0.73152
    CHANNELS 3 Zrotation Xrotation Yrotation
    JOINT chest
    {
      OFFSET 0 11.7043 -0.48768
      CHANNELS 3 Zrotation Xrotation Yrotation
      JOINT neck
      {
        OFFSET 0 22.1894 -2.19456
        CHANNELS 3 Zrotation Xrotation Yrotation
        JOINT head
        {
          OFFSET -0.24384 7.07133 1.2192
          CHANNELS 3 Zrotation Xrotation Yrotation
          JOINT leftEye
          {
            OFFSET 4.14528 8.04674 8.04672
            CHANNELS 3 Zrotation Xrotation Yrotation
            End Site
            {
              OFFSET 1 0 0
            }
          }
          JOINT rightEye
          {
            OFFSET -3.6576 8.04674 8.04672
            CHANNELS 3 Zrotation Xrotation Yrotation
            End Site
            {
              OFFSET 1 0 0
            }
          }
        }
      }
      JOINT rCollar
      {
        OFFSET -2.68224 19.2634 -4.8768
        CHANNELS 3 Zrotation Xrotation Yrotation
        JOINT rShldr
        {
          OFFSET -8.77824 -1.95073 1.46304
          CHANNELS 3 Zrotation Xrotation Yrotation
          JOINT rForeArm
          {
            OFFSET -28.1742 -1.7115 0.48768
            CHANNELS 3 Zrotation Xrotation Yrotation
            JOINT rHand
            {
              OFFSET -22.5879 0.773209 7.07136
              CHANNELS 3 Zrotation Xrotation Yrotation
              JOINT rThumb1
              {
                OFFSET -1.2192 -0.487915 3.41376
                CHANNELS 3 Zrotation Xrotation Yrotation
                JOINT rThumb2
                {
                  OFFSET -3.37035 -0.52449 3.41376
                  CHANNELS 3 Zrotation Xrotation Yrotation
                  End Site
                  {
                    OFFSET -1.78271 -1.18214 1.43049
                  }
                }
              }
              JOINT rIndex1
              {
                OFFSET -7.75947 0.938293 5.60832
                CHANNELS 3 Zrotation Xrotation Yrotation
                JOINT rIndex2
                {
                  OFFSET -2.54057 -0.884171 1.56538
                  CHANNELS 3 Zrotation Xrotation Yrotation
                  End Site
                  {
                    OFFSET -1.62519 -0.234802 1.16502
                  }
                }
              }
              JOINT rMid1
              {
                OFFSET -8.24714 1.18213 3.41376
                CHANNELS 3 Zrotation Xrotation Yrotation
                JOINT rMid2
                {
                  OFFSET -3.10165 -0.590103 1.0647
                  CHANNELS 3 Zrotation Xrotation Yrotation
                  End Site
                  {
                    OFFSET -2.48547 -0.328903 0.83742
                  }
                }
              }
              JOINT rRing1
              {
                OFFSET -8.82822 0.546677 1.51678
                CHANNELS 3 Zrotation Xrotation Yrotation
                JOINT rRing2
                {
                  OFFSET -2.60934 -0.819778 -0.0198488
                  CHANNELS 3 Zrotation Xrotation Yrotation
                  End Site
                  {
                    OFFSET -2.33842 -0.294052 0.168128
                  }
                }
              }
              JOINT rPinky1
              {
                OFFSET -8.27202 -0.0477905 -0.4584
                CHANNELS 3 Zrotation Xrotation Yrotation
                JOINT rPinky2
                {
                  OFFSET -1.82734 -0.647385 -0.700984
                  CHANNELS 3 Zrotation Xrotation Yrotation
                  End Site
                  {
                    OFFSET -1.69225 -0.51767 -0.607171
                  }
                }
              }
            }
          }
        }
      }
      JOINT lCollar
      {
        OFFSET 2.68224 19.2634 -4.8768
        CHANNELS 3 Zrotation Xrotation Yrotation
        JOINT lShldr
        {
          OFFSET 8.77824 -1.95073 1.46304
          CHANNELS 3 Zrotation Xrotation Yrotation
          JOINT lForeArm
          {
            OFFSET 28.1742 -1.7115 0.48768
            CHANNELS 3 Zrotation Xrotation Yrotation
            JOINT lHand
            {
              OFFSET 22.5879 0.773209 7.07136
              CHANNELS 3 Zrotation Xrotation Yrotation
              JOINT lThumb1
              {
                OFFSET 1.2192 -0.487915 3.41376
                CHANNELS 3 Zrotation Xrotation Yrotation
                JOINT lThumb2
                {
                  OFFSET 3.37035 -0.52449 3.41376
                  CHANNELS 3 Zrotation Xrotation Yrotation
                  End Site
                  {
                    OFFSET 1.78271 -1.18214 1.43049
                  }
                }
              }
              JOINT lIndex1
              {
                OFFSET 7.75947 0.938293 5.60832
                CHANNELS 3 Zrotation Xrotation Yrotation
                JOINT lIndex2
                {
                  OFFSET 2.54057 -0.884171 1.56538
                  CHANNELS 3 Zrotation Xrotation Yrotation
                  End Site
                  {
                    OFFSET 1.62519 -0.234802 1.16502
                  }
                }
              }
              JOINT lMid1
              {
                OFFSET 8.24714 1.18213 3.41376
                CHANNELS 3 Zrotation Xrotation Yrotation
                JOINT lMid2
                {
                  OFFSET 3.10165 -0.590103 1.0647
                  CHANNELS 3 Zrotation Xrotation Yrotation
                  End Site
                  {
                    OFFSET 2.48547 -0.328903 0.83742
                  }
                }
              }
              JOINT lRing1
              {
                OFFSET 8.82822 0.546677 1.51678
                CHANNELS 3 Zrotation Xrotation Yrotation
                JOINT lRing2
                {
                  OFFSET 2.60934 -0.819778 -0.0198488
                  CHANNELS 3 Zrotation Xrotation Yrotation
                  End Site
                  {
                    OFFSET 2.33842 -0.294052 0.168128
                  }
                }
              }
              JOINT lPinky1
              {
                OFFSET 8.27202 -0.0477905 -0.4584
                CHANNELS 3 Zrotation Xrotation Yrotation
                JOINT lPinky2
                {
                  OFFSET 1.82734 -0.647385 -0.700984
                  CHANNELS 3 Zrotation Xrotation Yrotation
                  End Site
                  {
                    OFFSET 1.69225 -0.51767 -0.607171
                  }
                }
              }
            }
          }
        }
      }
    }
  }
  JOINT rButtock
  {
    OFFSET -8.77824 4.35084 1.2192
    CHANNELS 3 Zrotation Xrotation Yrotation
    JOINT rThigh
    {
      OFFSET 0 -1.70687 -2.19456
      CHANNELS 3 Zrotation Xrotation Yrotation
      JOINT rShin
      {
        OFFSET 0 -36.8199 0.73152
        CHANNELS 3 Zrotation Xrotation Yrotation
        JOINT rFoot
        {
          OFFSET 0.73152 -45.1104 -5.12064
          CHANNELS 3 Zrotation Xrotation Yrotation
          End Site
          {
            OFFSET -1.1221 -3.69964 12.103
          }
        }
      }
    }
  }
  JOINT lButtock
  {
    OFFSET 8.77824 4.35084 1.2192
    CHANNELS 3 Zrotation Xrotation Yrotation
    JOINT lThigh
    {
      OFFSET 0 -1.70687 -2.19456
      CHANNELS 3 Zrotation Xrotation Yrotation
      JOINT lShin
      {
        OFFSET 0 -36.8199 0.73152
        CHANNELS 3 Zrotation Xrotation Yrotation
        JOINT lFoot
        {
          OFFSET -0.73152 -45.1104 -5.12064
          CHANNELS 3 Zrotation Xrotation Yrotation
          End Site
          {
            OFFSET 1.1221 -3.69964 12.103
          }
        }
      }
    }
  }
}
MOTION
Frames:	7
Frame Time:	0.00833333
1.76431 81.706 -25.3082 -185.628 178.772 -544.601 12.9357 8.80367 -15.6274 4.4084 -1.74612 -4.10351 2.63419 3.30334 5.92278 -16.6883 -14.9609 9.05095 -0.0 0.0 0.0 -0.0 0.0 0.0 8.31913e-15 -1.04313e-14 -3.9173e-14 -0.0154245 51.7566 99.1358 -28.3779 -33.8898 73.5211 -0.0385754 -2.80712 -0.392785 -4.27481e-10 -7.42379e-10 4.82069e-10 -7.4003e-10 -1.28588e-09 8.33811e-10 -4.27482e-10 -7.4238e-10 4.82062e-10 7.73091 5.47488 0.417314 -4.27482e-10 -7.4238e-10 4.82073e-10 2.90554 0.965183 0.102902 -4.27472e-10 -7.4238e-10 4.8207e-10 10.2786 0.731801 0.0259123 -4.27488e-10 -7.42378e-10 4.82076e-10 2.22167 -0.733487 -0.20892 8.09056e-15 -1.04486e-14 -3.95147e-14 -1.911 -27.6504 -77.646 21.7494 -15.4817 -42.8845 13.3119 -67.4716 19.8163 5.46408e-11 -1.57476e-10 -1.2433e-10 1.03818e-10 -2.46335e-10 -2.10981e-10 5.46481e-11 -1.57479e-10 -1.24325e-10 -7.73091 5.47488 -0.417314 5.46415e-11 -1.57476e-10 -1.24337e-10 -2.90554 0.965183 -0.102902 5.46316e-11 -1.57474e-10 -1.24334e-10 -10.2786 0.731801 -0.0259123 5.46384e-11 -1.57472e-10 -1.24337e-10 -2.22167 -0.733487 0.20892 -2.03217e-16 0.0 -3.88251e-19 -11.2507 -21.5508 -1.0716 -0.321197 38.9178 0.600835 1.51149 14.8437 -9.12444 2.03217e-16 0.0 3.88251e-19 12.297 -1.6381 9.04698 0.0962924 24.0845 -0.457516 0.469499 -24.654 1.19063
1.90049 81.4465 -25.1667 -185.49 178.227 -544.714 12.8675 8.33135 -14.6393 4.30085 -1.68809 -3.84316 2.42433 3.28481 5.60144 -16.9085 -14.2982 8.52056 -0.0 0.0 0.0 -0.0 0.0 0.0 1.28712e-13 1.2147e-13 -7.81954e-14 -2.00534 51.5131 100.904 -28.3753 -33.8486 73.4541 -0.0170251 -2.10204 -0.294774 -8.13344e-10 -1.30058e-09 7.48892e-10 -1.40613e-09 -2.24807e-09 1.29411e-09 -8.13347e-10 -1.30058e-09 7.48883e-10 7.73091 5.47488 0.417314 -8.13345e-10 -1.30058e-09 7.48895e-10 2.90554 0.965183 0.102902 -8.13333e-10 -1.30058e-09 7.48892e-10 10.2786 0.731801 0.0259123 -8.13348e-10 -1.30058e-09 7.48898e-10 2.22167 -0.733487 -0.20892 1.28522e-13 1.21468e-13 -7.85495e-14 2.72659 -27.1737 -74.3574 23.0096 -17.4078 -46.5761 14.2733 -68.4404 20.8528 2.01967e-10 -4.09212e-10 -2.83059e-10 3.67583e-10 -6.58122e-10 -4.76145e-10 2.01971e-10 -4.09213e-10 -2.83058e-10 -7.73091 5.47488 -0.417314 2.01968e-10 -4.09212e-10 -2.8307e-10 -2.90554 0.965183 -0.102902 2.01957e-10 -4.09209e-10 -2.83066e-10 -10.2786 0.731801 -0.0259123 2.01964e-10 -4.09207e-10 -2.8307e-10 -2.22167 -0.733487 0.20892 -2.03217e-16 0.0 -3.88251e-19 -11.7171 -21.8003 -1.36602 -0.342594 40.0019 0.629878 1.51302 14.3264 -9.67302 2.03217e-16 0.0 3.88251e-19 12.0957 -1.9643 9.16888 0.104032 24.8817 -0.465515 0.148747 -24.9079 0.533986
2.06559 81.2011 -25.0026 -185.213 177.605 -544.825 12.7804 7.83764 -13.5503 4.10931 -1.64989 -3.55607 2.2352 3.31115 5.23657 -16.9766 -13.6597 7.91427 -0.0 0.0 0.0 -0.0 0.0 0.0 1.88905e-13 2.0017e-13 -9.0447e-14 -3.07844 51.7643 101.568 -28.3766 -33.8632 73.476 -0.00226017 -1.35736 -0.1908 -1.01087e-09 -1.6067e-09 9.13694e-10 -1.74709e-09 -2.77583e-09 1.57854e-09 -1.01088e-09 -1.6067e-09 9.13684e-10 7.73091 5.47488 0.417314 -1.01087e-09 -1.6067e-09 9.13697e-10 2.90554 0.965183 0.102902 -1.01086e-09 -1.6067e-09 9.13694e-10 10.2786 0.731801 0.0259123 -1.01087e-09 -1.6067e-09 9.137e-10 2.22167 -0.733487 -0.20892 1.88749e-13 2.00181e-13 -9.07949e-14 6.34799 -26.7064 -71.257 24.1389 -19.3588 -50.0517 14.264 -68.4488 20.8456 3.48959e-10 -5.86691e-10 -3.52304e-10 6.24853e-10 -9.51507e-10 -5.87977e-10 3.48961e-10 -5.86691e-10 -3.52304e-10 -7.73091 5.47488 -0.417314 3.4896e-10 -5.86691e-10 -3.52316e-10 -2.90554 0.965183 -0.102902 3.48948e-10 -5.86688e-10 -3.52311e-10 -10.2786 0.731801 -0.0259123 3.48955e-10 -5.86686e-10 -3.52316e-10 -2.22167 -0.733487 0.20892 -2.03217e-16 0.0 -3.88251e-19 -12.1941 -22.0467 -1.58615 -0.364165 41.0561 0.660459 1.49919 13.8611 -10.1328 2.03217e-16 0.0 3.88251e-19 11.8452 -2.2608 9.1972 0.110317 25.5315 -0.472524 -0.104263 -25.1425 0.0269489
2.2403 80.9748 -24.8463 -184.905 176.883 -544.845 12.6608 7.24227 -12.321 3.79607 -1.63963 -3.2344 2.10054 3.45197 4.8091 -16.9179 -13.0785 7.18423 -0.0 0.0 0.0 -0.0 0.0 0.0 1.56025e-13 1.97624e-13 -5.85176e-14 -2.96841 52.6026 100.806 -28.3808 -33.9366 73.5974 0.00348311 -0.463332 -0.0651446 -9.23143e-10 -1.5617e-09 9.53274e-10 -1.59564e-09 -2.69877e-09 1.64728e-09 -9.23147e-10 -1.5617e-09 9.53262e-10 7.73091 5.47488 0.417314 -9.23144e-10 -1.5617e-09 9.53276e-10 2.90554 0.965183 0.102902 -9.23132e-10 -1.5617e-09 9.53274e-10 10.2786 0.731801 0.0259123 -9.23142e-10 -1.5617e-09 9.5328e-10 2.22167 -0.733487 -0.20892 1.55901e-13 1.97647e-13 -5.88205e-14 8.67155 -26.3787 -68.3417 25.275 -21.6702 -53.4621 13.2795 -67.4229 19.775 5.23035e-10 -6.6982e-10 -2.78171e-10 9.19205e-10 -1.09581e-09 -4.52616e-10 5.23037e-10 -6.69819e-10 -2.78168e-10 -7.73091 5.47488 -0.417314 5.23037e-10 -6.6982e-10 -2.78183e-10 -2.90554 0.965183 -0.102902 5.23025e-10 -6.69817e-10 -2.78177e-10 -10.2786 0.731801 -0.0259123 5.23034e-10 -6.69814e-10 -2.78184e-10 -2.22167 -0.733487 0.20892 -2.03217e-16 0.0 -3.88251e-19 -12.7007 -22.3073 -1.70753 -0.385364 42.0563 0.692549 1.46982 13.4358 -10.4963 2.03217e-16 0.0 3.88251e-19 11.5021 -2.56053 9.07357 0.114568 25.9917 -0.478251 -0.259302 -25.3677 -0.272781
2.41112 80.757 -24.7021 -184.669 176.077 -544.747 12.5312 6.54926 -10.9556 3.39346 -1.65306 -2.87761 1.98901 3.67767 4.31256 -16.7566 -12.5322 6.32454 -0.0 0.0 0.0 -0.0 0.0 0.0 6.69084e-14 1.48017e-13 2.45064e-15 -1.83658 53.8354 98.7592 -28.3866 -34.0534 73.7942 0.00490804 0.838093 0.11771 -6.57459e-10 -1.30446e-09 9.27771e-10 -1.13686e-09 -2.25593e-09 1.60394e-09 -6.57463e-10 -1.30447e-09 9.27756e-10 7.73091 5.47488 0.417314 -6.57461e-10 -1.30446e-09 9.27773e-10 2.90554 0.965183 0.102902 -6.57449e-10 -1.30446e-09 9.27771e-10 10.2786 0.731801 0.0259123 -6.57458e-10 -1.30446e-09 9.27777e-10 2.22167 -0.733487 -0.20892 6.68189e-14 1.48054e-13 2.2208e-15 10.1799 -26.0975 -65.3386 26.2906 -24.1348 -57.0792 11.7768 -65.6004 18.1194 7.22596e-10 -6.88376e-10 -1.00224e-10 1.25071e-09 -1.1358e-09 -1.37915e-10 7.22597e-10 -6.88374e-10 -1.00215e-10 -7.73091 5.47488 -0.417314 7.22598e-10 -6.88375e-10 -1.00235e-10 -2.90554 0.965183 -0.102902 7.22586e-10 -6.88373e-10 -1.00228e-10 -10.2786 0.731801 -0.0259123 7.22597e-10 -6.8837e-10 -1.00236e-10 -2.22167 -0.733487 0.20892 -2.03217e-16 0.0 -3.88251e-19 -13.2564 -22.5923 -1.76945 -0.407361 43.0448 0.726911 1.43104 13.0308 -10.8121 2.03217e-16 0.0 3.88251e-19 11.078 -2.88095 8.84451 0.117265 26.3154 -0.482488 -0.360863 -25.582 -0.459305
2.60248 80.5533 -24.5404 -184.422 175.26 -544.751 12.4227 5.93159 -9.54106 2.96326 -1.67517 -2.50368 1.85253 3.85394 3.79449 -16.4099 -11.9604 5.4477 -0.0 0.0 0.0 -0.0 0.0 0.0 -3.211e-14 8.88122e-14 6.46411e-14 0.0988822 55.3694 95.7133 -28.3949 -34.2166 74.0635 -0.00180315 2.10639 0.296088 -3.51419e-10 -9.5366e-10 8.44286e-10 -6.08324e-10 -1.65144e-09 1.46042e-09 -3.51422e-10 -9.53662e-10 8.44269e-10 7.73091 5.47488 0.417314 -3.51421e-10 -9.53655e-10 8.44287e-10 2.90554 0.965183 0.102902 -3.51411e-10 -9.53654e-10 8.44287e-10 10.2786 0.731801 0.0259123 -3.51417e-10 -9.53652e-10 8.44293e-10 2.22167 -0.733487 -0.20892 -3.2174e-14 8.88598e-14 6.4475e-14 11.2328 -25.8266 -62.3235 26.9762 -26.1837 -60.5252 9.90272 -62.9297 16.0374 8.87148e-10 -6.65237e-10 8.9953e-11 1.52126e-09 -1.10693e-09 1.95827e-10 8.87148e-10 -6.65235e-10 8.99685e-11 -7.73091 5.47488 -0.417314 8.8715e-10 -6.65236e-10 8.99441e-11 -2.90554 0.965183 -0.102902 8.87138e-10 -6.65235e-10 8.99517e-11 -10.2786 0.731801 -0.0259123 8.87151e-10 -6.65232e-10 8.99419e-11 -2.22167 -0.733487 0.20892 -2.03217e-16 0.0 -3.88251e-19 -13.8 -22.8559 -1.79606 -0.430778 44.0444 0.763285 1.39029 12.6877 -11.0629 2.03217e-16 0.0 3.88251e-19 10.6563 -3.13563 8.606 0.119007 26.5577 -0.485776 -0.434871 -25.7693 -0.588236
2.77765 80.3775 -24.3692 -184.244 174.457 -544.857 12.3455 5.56702 -8.16081 2.56689 -1.69096 -2.13063 1.63772 3.84622 3.30265 -15.796 -11.3045 4.66621 -0.0 0.0 0.0 -0.0 0.0 0.0 -9.46939e-14 5.74717e-14 1.00237e-13 2.60786 57.1325 91.9691 -28.4065 -34.4289 74.4032 -0.0103332 2.90106 0.40807 -1.42619e-10 -6.2794e-10 7.09922e-10 -2.47634e-10 -1.0894e-09 1.2286e-09 -1.42623e-10 -6.27943e-10 7.09903e-10 7.73091 5.47488 0.417314 -1.42621e-10 -6.27935e-10 7.09922e-10 2.90554 0.965183 0.102902 -1.42613e-10 -6.27934e-10 7.09923e-10 10.2786 0.731801 0.0259123 -1.42618e-10 -6.27931e-10 7.09928e-10 2.22167 -0.733487 -0.20892 -9.47544e-14 5.75249e-14 1.00088e-13 12.1905 -25.5607 -59.39 27.3205 -27.4738 -63.2273 7.84443 -59.3533 13.7214 9.56195e-10 -6.23281e-10 2.00776e-10 1.63275e-09 -1.04465e-09 3.88311e-10 9.56195e-10 -6.2328e-10 2.00795e-10 -7.73091 5.47488 -0.417314 9.56198e-10 -6.23281e-10 2.00769e-10 -2.90554 0.965183 -0.102902 9.56186e-10 -6.2328e-10 2.00776e-10 -10.2786 0.731801 -0.0259123 9.562e-10 -6.23277e-10 2.00766e-10 -2.22167 -0.733487 0.20892 -2.03217e-16 0.0 -3.88251e-19 -14.2706 -23.0526 -1.81163 -0.456292 45.0777 0.801481 1.35584 12.4475 -11.2312 2.03217e-16 0.0 3.88251e-19 10.3233 -3.23772 8.45399 0.120433 26.774 -0.488688 -0.50807 -25.9131 -0.715527
